<svg width="64" height="64" viewBox="0 0 64 64" fill="none" xmlns="http://www.w3.org/2000/svg">
<g clip-path="url(#clip0_1_11)">
<path d="M32.6799 0.0362352V10.5388C32.6915 10.6598 32.6861 10.7818 32.6642 10.9007C32.6582 10.941 32.6504 10.9794 32.6408 11.0182C32.64 11.0232 32.6391 11.0282 32.6381 11.0333C32.5539 11.3527 32.3521 11.6292 32.073 11.8067L18.2736 24.2128H31.7919C31.8623 24.1977 31.9338 24.1927 32.0054 24.1927C32.3877 24.1885 32.7528 24.351 33.0054 24.6382C33.0151 24.6483 33.0246 24.6534 33.034 24.6634C33.0367 24.6669 33.0392 24.6684 33.0419 24.6734C33.2935 24.9682 33.4022 25.3589 33.3388 25.7412V37.197H49.0393C49.0609 37.1929 49.0826 37.1919 49.1044 37.1868C49.7615 37.1364 50.3541 37.581 50.4898 38.226C50.4948 38.2512 50.4994 38.279 50.5029 38.3016C50.5079 38.3369 50.5115 38.3763 50.5135 38.4136C50.5144 38.4186 50.5152 38.4287 50.5162 38.4337C50.518 38.4741 50.518 38.5153 50.5162 38.5562C50.5162 38.5596 50.5162 38.5613 50.5162 38.5663C50.499 38.98 50.2874 39.361 49.9458 39.5949L34.0056 53.9308V63.9308C50.864 62.8723 63.9965 48.8927 64.0004 32.001C63.9858 14.6032 50.0738 0.405772 32.6799 0.0362352Z" fill="#FFAC76"/>
<path d="M30.0594 0.0726318C13.1763 1.0995 0.00804181 15.0879 0.0020752 32.0022C0.0156815 49.4229 13.9622 63.6322 31.3797 63.971V53.4737C31.361 53.2731 31.3887 53.071 31.4604 52.8825C31.5467 52.6492 31.6975 52.445 31.8953 52.294L45.7703 39.8252H32.2417C32.065 39.8554 31.8842 39.8454 31.7104 39.805C31.6923 39.8011 31.6736 39.795 31.6557 39.79C30.9061 39.6111 30.4705 38.8287 30.713 38.0972V26.8369H15.1557C14.3991 27.0465 13.6287 26.5501 13.5073 25.7744C13.3954 25.2017 13.6742 24.6237 14.1922 24.3551L30.0594 10.0894L30.0594 0.0726318Z" fill="#999999"/>
<path d="M32.0021 0.000610352C31.3539 0.00444755 30.7061 0.0280136 30.0593 0.0711997V10.0893L14.1948 24.355C13.9426 24.4858 13.7396 24.6948 13.6161 24.9506C13.4927 25.2065 13.4554 25.4955 13.5099 25.7743C13.5385 25.9573 13.6055 26.1321 13.7065 26.2874C13.8075 26.4426 13.9402 26.5747 14.0959 26.6751C14.2516 26.7754 14.4267 26.8418 14.6098 26.8696C14.7929 26.8975 14.9798 26.8862 15.1583 26.8367H30.7156V38.0972C30.6583 38.2701 30.6375 38.453 30.6546 38.6343C30.6717 38.8157 30.7263 38.9916 30.8149 39.1508C30.9035 39.3099 31.0243 39.4489 31.1695 39.5589C31.3147 39.669 31.4811 39.7476 31.6583 39.7899C31.6764 39.7954 31.6947 39.8003 31.713 39.805C31.886 39.8475 32.0659 39.8543 32.2416 39.8251H45.7729L31.8979 52.2939C31.7005 52.4442 31.5497 52.6474 31.463 52.8799C31.3908 53.0689 31.3631 53.2721 31.3823 53.4736V63.971C31.5888 63.9831 31.7954 63.9932 32.0021 64.0013C32.6719 63.9988 33.3415 63.9752 34.0099 63.9307V53.9307L49.95 39.5948C50.1184 39.4794 50.2577 39.3264 50.3567 39.1478C50.4557 38.9693 50.5117 38.7702 50.5203 38.5662C50.5203 38.5629 50.5203 38.5594 50.5203 38.5561C50.5222 38.5153 50.5222 38.4744 50.5203 38.4337C50.5195 38.4269 50.5186 38.4202 50.5177 38.4135C50.5157 38.3761 50.5122 38.3387 50.5071 38.3015C50.5034 38.2771 50.499 38.2527 50.494 38.2285C50.494 38.2294 50.494 38.2276 50.494 38.2285C50.4284 37.9167 50.2517 37.6369 49.9968 37.4457C49.7419 37.2545 49.4262 37.1625 49.1086 37.1869C49.0868 37.1897 49.0651 37.193 49.0435 37.1969H33.3429V25.7413C33.3743 25.5524 33.3639 25.359 33.3127 25.1745C33.2614 24.9901 33.1704 24.8191 33.0461 24.6735C33.0434 24.6701 33.0407 24.6667 33.038 24.6634C33.0286 24.6548 33.019 24.6464 33.0093 24.6381C32.8845 24.4963 32.7305 24.3831 32.5579 24.3063C32.3853 24.2294 32.1982 24.1907 32.0093 24.1928C31.9377 24.1936 31.8663 24.2004 31.7958 24.2129H18.2776L32.077 11.8066C32.3561 11.6291 32.5579 11.3529 32.6421 11.0332C32.643 11.0281 32.6439 11.0231 32.6447 11.0181C32.6544 10.9795 32.6623 10.9404 32.6684 10.901C32.6903 10.7817 32.6956 10.6601 32.684 10.5393V0.0367509C32.4567 0.0225648 32.2296 0.00994067 32.0021 0.000610352Z" fill="white"/>
<path d="M32.6796 0.03437V10.5396C32.6912 10.6605 32.6857 10.7824 32.664 10.9013C32.6579 10.9416 32.6499 10.9795 32.6408 11.0183C32.64 11.0234 32.6391 11.0283 32.6382 11.0334C32.5539 11.3529 32.3521 11.6293 32.0731 11.8068L18.2736 24.213H20.9012L33.5835 12.812C33.8625 12.6346 34.0644 12.3585 34.1486 12.0386C34.1495 12.0335 34.1504 12.0285 34.1512 12.0235C34.1608 11.9832 34.1684 11.9453 34.1749 11.906C34.1966 11.7866 34.2021 11.6677 34.1905 11.5467V0.104037C33.6899 0.068761 33.1865 0.0454566 32.6796 0.03437ZM33.5156 25.1985C33.4474 25.1993 33.3796 25.2085 33.3124 25.2186C33.3532 25.3884 33.3677 25.5657 33.3386 25.742V37.1977H34.849V26.7471C34.9125 26.3646 34.8037 25.9742 34.5522 25.6795C34.5495 25.6762 34.5471 25.6744 34.5441 25.6694C34.5345 25.6593 34.525 25.6544 34.5154 25.6443C34.2628 25.3576 33.8978 25.1944 33.5156 25.1985ZM50.6145 38.1932C50.5928 38.196 50.5712 38.1982 50.5494 38.2032H50.4791C50.4811 38.2133 50.4877 38.2183 50.4897 38.2284C50.4947 38.2536 50.4993 38.2814 50.5028 38.3041C50.5078 38.3394 50.5114 38.3788 50.5134 38.416C50.5143 38.4211 50.515 38.4312 50.516 38.4362C50.5178 38.4765 50.5178 38.5178 50.516 38.5586C50.516 38.5621 50.516 38.5637 50.516 38.5688C50.4988 38.9825 50.2873 39.3635 49.9457 39.5973L34.0056 53.9332V63.9332C34.5132 63.903 35.018 63.8582 35.5186 63.8033V54.9413L51.4587 40.6054C51.8003 40.3716 52.0116 39.9903 52.029 39.5767C52.029 39.5734 52.029 39.5717 52.029 39.5667C52.0309 39.5264 52.0309 39.4849 52.029 39.4441C52.0282 39.4391 52.0273 39.429 52.0264 39.424C52.0245 39.3887 52.0183 39.3495 52.0133 39.3122C52.0096 39.287 52.0052 39.2618 52.0002 39.2391C51.8645 38.5942 51.2716 38.1429 50.6145 38.1932Z" fill="#FF924B"/>
</g>
<defs>
<clipPath id="clip0_1_11">
<rect width="64" height="64" fill="white"/>
</clipPath>
</defs>
</svg>
