<svg width="64" height="64" viewBox="0 0 64 64" fill="none" xmlns="http://www.w3.org/2000/svg">
<g clip-path="url(#clip0_1_17)">
<path d="M34.0747 15.848C34.0747 15.848 28.8213 15.5013 19.8693 18.3013C10.7493 21.1547 5.576 25.2 5.576 25.2C5.576 25.2 19.1707 17.608 34.5147 17.1787L34.0747 15.848ZM53.6773 24.1013L54.3627 24.056C54.3627 24.056 50.448 19.3093 42.9547 16.9947C47.168 18.7067 50.832 20.976 53.6773 24.1013ZM54.7973 26.0747C54.9013 25.8933 55.24 26.6533 55.4987 26.9733C55.5093 27.0373 55.5253 27.0773 55.3787 27.0453C55.3653 26.9787 55.344 26.96 55.344 26.96C55.344 26.96 54.984 26.7467 54.872 26.5947C54.7627 26.4427 54.7413 26.176 54.7973 26.0747ZM63.992 48.6853C63.992 48.6853 64.824 39.144 49.832 36.944C47.6027 36.6225 45.3537 36.4558 43.1013 36.4453C31.0853 36.6053 30.648 22.5867 39.7013 21.88C43.4533 21.5707 47.9333 23.5947 52.3147 25.6347C52.296 26.1787 52.32 26.6613 52.6773 27.1067C53.0347 27.5547 54.4053 28.04 54.8453 28.2933C55.2827 28.544 56.688 29.44 57.5493 30.56C57.736 30.2107 59.2933 29.1947 59.2933 29.1947C59.2933 29.1947 58.92 29.2027 58.0533 28.8773C57.184 28.552 56.152 27.5707 56.128 27.5147C56.1013 27.456 56.088 27.368 56.288 27.328C56.4453 27.1973 56.096 26.776 55.9413 26.6213C55.7867 26.4667 54.7547 24.712 54.7307 24.6747C54.7067 24.632 54.6987 24.592 54.624 24.5413C54.3973 24.4693 53.3973 24.648 53.3973 24.648C53.3973 24.648 51.864 23.8933 51.3333 22.2667C51.3413 22.552 51.0693 22.864 51.3333 23.5173C50.5333 23.1787 49.8453 22.6 49.3013 21.1707C48.9813 21.984 49.3013 22.5013 49.3013 22.5013C49.3013 22.5013 47.416 21.9733 47.1147 20.2347C46.784 21.016 47.1147 21.4853 47.1147 21.4853C47.1147 21.4853 44.04 19.88 38.9307 19.8587C35.5093 19.544 34.7973 13.528 35.1173 12.5147C35.1173 12.5147 30.184 9.91467 20.4693 8.76534C10.7573 7.61867 2.79467 8.592 2.79467 8.592C2.79467 8.592 19.9947 7.76534 33.7733 13.3467C34.2427 15.44 35.6507 18.9307 36.4107 20.608C34.2373 22.1093 31.7893 23.52 31.408 28.528C31.0267 33.536 35.3333 37.9413 40.672 38.0747C45.7387 38.3467 49.2427 38.384 53.488 40.5867C57.5413 42.8267 60.864 49.6533 61.1947 55.7947C61.5467 51.2373 59.8373 41.44 51.8613 38.4667C63.0107 40.4187 63.992 48.6853 63.992 48.6853ZM33.8133 15.1013L33.4133 13.808C33.4133 13.808 26.7893 12.632 17.888 13.264C8.98667 13.896 0 17.0133 0 17.0133C0 17.0133 18.3893 12.3867 33.8133 15.1013Z" fill="black"/>
</g>
<defs>
<clipPath id="clip0_1_17">
<rect width="64" height="64" fill="white"/>
</clipPath>
</defs>
</svg>
