<svg width="64" height="57" viewBox="0 0 64 57" fill="none" xmlns="http://www.w3.org/2000/svg">
<g clip-path="url(#clip0_1_7)">
<path d="M52.6205 18.456C51.9394 18.2223 51.2525 18.0058 50.5605 17.8067C50.6768 17.3317 50.7838 16.8625 50.8788 16.4015C52.4382 8.83121 51.4187 2.73246 47.9365 0.724457C44.5978 -1.20054 39.1376 0.806707 33.6231 5.60596C33.0796 6.07979 32.5482 6.56728 32.0293 7.06796C31.682 6.73502 31.3285 6.40855 30.9691 6.08871C25.1896 0.957207 19.3967 -1.20554 15.9182 0.808207C12.5824 2.73921 11.5947 8.47246 12.9987 15.647C13.1384 16.3575 13.2961 17.0644 13.4717 17.767C12.6517 18 11.8604 18.248 11.1032 18.512C4.32723 20.8745 0 24.5767 0 28.417C0 32.3832 4.64548 36.3615 11.7029 38.7737C12.2751 38.9685 12.852 39.1489 13.4332 39.315C13.2444 40.0716 13.0769 40.8334 12.9307 41.5995C11.5922 48.6495 12.6374 54.2472 15.9642 56.166C19.4002 58.1475 25.1671 56.111 30.7823 51.2022C31.2377 50.8031 31.683 50.3928 32.1178 49.9715C32.6797 50.5136 33.2566 51.04 33.8478 51.55C39.2873 56.2305 44.6593 58.1205 47.9828 56.1965C51.4155 54.2092 52.5312 48.1957 51.0828 40.8795C50.9686 40.3063 50.8407 39.736 50.699 39.169C51.104 39.049 51.5015 38.9255 51.889 38.797C59.226 36.3662 63.9997 32.4362 63.9997 28.417C63.9997 24.5627 59.5327 20.8355 52.6205 18.456ZM51.0292 36.202C50.6793 36.3177 50.3203 36.4295 49.9543 36.5382C49.1443 33.974 48.0513 31.2475 46.7135 28.4302C47.99 25.6802 49.041 22.9885 49.8283 20.441C50.483 20.6305 51.1182 20.8302 51.7307 21.041C57.6532 23.08 61.2657 26.0942 61.2657 28.417C61.2657 30.891 57.3642 34.1027 51.0292 36.202ZM48.4008 41.4105C49.0413 44.6455 49.1325 47.5705 48.7083 49.8572C48.3273 51.912 47.5608 53.2817 46.6128 53.8305C44.596 54.998 40.2828 53.4805 35.6311 49.4775C35.0812 49.0033 34.5445 48.5139 34.0218 48.01C35.8253 46.0377 37.6276 43.745 39.3866 41.1985C42.4805 40.924 45.4035 40.475 48.0543 39.8622C48.182 40.3755 48.2975 40.8917 48.4008 41.4105ZM21.8189 53.6287C19.8484 54.3245 18.2789 54.3445 17.3302 53.7975C15.3114 52.6332 14.4722 48.1385 15.6169 42.1095C15.753 41.397 15.9088 40.6885 16.0842 39.9847C18.7057 40.5647 21.6074 40.9817 24.7086 41.2332C26.4796 43.725 28.3339 46.0152 30.2026 48.0207C29.8055 48.405 29.3989 48.7794 28.9834 49.1437C26.5001 51.3142 24.0119 52.8542 21.8189 53.6287ZM12.5874 36.1867C9.4667 35.12 6.88947 33.7337 5.12298 32.221C3.53548 30.8617 2.73424 29.512 2.73424 28.417C2.73424 26.0865 6.20847 23.114 12.0032 21.0937C12.7064 20.8487 13.4424 20.6175 14.2062 20.4005C15.0072 23.0055 16.0577 25.7292 17.3254 28.4835C16.0412 31.2785 14.9757 34.0457 14.1669 36.6815C13.6365 36.5295 13.1098 36.3645 12.5874 36.1867ZM15.6819 15.1217C14.4792 8.97496 15.2779 4.33821 17.2882 3.17446C19.4292 1.93496 24.1636 3.70221 29.1539 8.13321C29.4793 8.4228 29.7994 8.71827 30.1141 9.01946C28.2546 11.0162 26.4174 13.2895 24.6621 15.7665C21.6521 16.0455 18.7709 16.4935 16.1219 17.0937C15.9587 16.4403 15.812 15.7826 15.6819 15.1217ZM43.2885 21.9387C42.6629 20.8579 42.014 19.7908 41.3423 18.738C43.3843 18.9962 45.3408 19.339 47.178 19.758C46.6265 21.526 45.939 23.3742 45.1298 25.2692C44.5383 24.1469 43.9244 23.0365 43.2885 21.9387ZM32.0306 10.9735C33.2916 12.3397 34.5546 13.865 35.7968 15.52C33.2768 15.4009 30.7526 15.4004 28.2326 15.5185C29.4761 13.8787 30.7498 12.3555 32.0306 10.9735ZM20.7004 21.9575C20.0725 23.0464 19.4701 24.1499 18.8937 25.267C18.0977 23.3787 17.4164 21.522 16.8602 19.729C18.6862 19.3205 20.6334 18.9865 22.6624 18.733C21.9832 19.7922 21.3291 20.8675 20.7004 21.9575ZM22.7206 38.2955C20.6244 38.0615 18.6479 37.7447 16.8224 37.3472C17.3874 35.5222 18.0837 33.626 18.8969 31.6972C19.4756 32.8151 20.0805 33.9193 20.7111 35.0087C21.3596 36.1287 22.0311 37.2257 22.7206 38.2955ZM32.1061 46.053C30.8101 44.655 29.5176 43.1082 28.2554 41.4447C29.4809 41.4927 30.7301 41.5172 31.9998 41.5172C33.3043 41.5172 34.5938 41.488 35.8631 41.4315C34.6168 43.125 33.3586 44.674 32.1061 46.053ZM45.1555 31.5987C46.011 33.5487 46.732 35.435 47.3045 37.2287C45.449 37.6522 43.4455 37.9932 41.3345 38.2465C42.011 37.1741 42.666 36.0884 43.2993 34.99C43.9431 33.8735 44.562 32.7428 45.1555 31.5987ZM40.9311 33.624C39.9616 35.3081 38.9376 36.9602 37.8608 38.5777C35.9102 38.7159 33.9553 38.7845 31.9998 38.7835C30.0081 38.7835 28.0709 38.7215 26.2054 38.6005C25.1004 36.9867 24.0569 35.3317 23.0771 33.639C22.1019 31.9552 21.1913 30.2351 20.3467 28.4822C21.1891 26.7289 22.0973 25.008 23.0691 23.323L23.0689 23.3232C24.0404 21.6378 25.0755 19.9898 26.1721 18.383C28.0754 18.239 30.0271 18.164 31.9996 18.164C33.9811 18.164 35.9356 18.2397 37.8383 18.3847C38.9238 19.9892 39.9524 21.6314 40.922 23.3085C41.8971 24.9898 42.8173 26.7023 43.681 28.4435C42.8262 30.2024 41.9089 31.9303 40.9311 33.624ZM46.571 3.09296C48.714 4.32896 49.5475 9.31321 48.201 15.8495C48.115 16.2665 48.0185 16.6912 47.9135 17.122C45.258 16.509 42.3748 16.0532 39.3561 15.77C37.5976 13.2657 35.7753 10.989 33.9461 9.01796C34.4255 8.55583 34.9163 8.1057 35.4181 7.66796C40.1431 3.55621 44.559 1.93271 46.571 3.09296ZM31.9998 22.702C35.1561 22.702 37.7148 25.2607 37.7148 28.417C37.7148 31.5732 35.1561 34.132 31.9998 34.132C28.8436 34.132 26.2849 31.5732 26.2849 28.417C26.2849 25.2607 28.8436 22.702 31.9998 22.702Z" fill="#00D8FF"/>
</g>
<defs>
<clipPath id="clip0_1_7">
<rect width="64" height="57" fill="white"/>
</clipPath>
</defs>
</svg>
