<svg width="64" height="64" viewBox="0 0 64 64" fill="none" xmlns="http://www.w3.org/2000/svg">
<path d="M8.64062 2.71875C7.2992 2.71875 6.21875 3.82069 6.21875 5.17188V54.1719C6.21875 55.5231 7.2992 56.6406 8.64062 56.6406H57.7031C59.0445 56.6406 60.1406 55.5231 60.1406 54.1719V5.17188C60.1406 3.82069 59.0445 2.71875 57.7031 2.71875H8.64062ZM10.0156 5.34375H56.3281C56.9815 5.34375 57.5 5.86223 57.5 6.51562V44.25H46.6321C43.5815 40.036 39.9549 25.9804 45.5696 14.7969C33.7115 14.5957 20.0377 29.6786 20.0312 44.25H8.84375V6.51562C8.84375 5.86223 9.36223 5.34375 10.0156 5.34375Z" fill="black"/>
</svg>
